<svg width="300" height="300" viewBox="0 0 300 300" fill="none" xmlns="http://www.w3.org/2000/svg">
<circle cx="150" cy="150" r="150" fill="white"/>
<path d="M107.296 196V106.4H155.168C167.541 106.4 176.672 108.619 182.56 113.056C188.448 117.408 191.392 122.997 191.392 129.824C191.392 134.347 190.112 138.4 187.552 141.984C185.077 145.483 181.451 148.256 176.672 150.304C171.893 152.352 166.005 153.376 159.008 153.376L161.568 146.464C168.565 146.464 174.581 147.445 179.616 149.408C184.736 151.371 188.661 154.229 191.392 157.984C194.208 161.653 195.616 166.091 195.616 171.296C195.616 179.061 192.373 185.12 185.888 189.472C179.488 193.824 170.101 196 157.728 196H107.296ZM136.992 174.88H155.168C158.496 174.88 160.971 174.283 162.592 173.088C164.299 171.893 165.152 170.144 165.152 167.84C165.152 165.536 164.299 163.787 162.592 162.592C160.971 161.397 158.496 160.8 155.168 160.8H134.944V140.832H151.072C154.485 140.832 156.96 140.277 158.496 139.168C160.117 137.973 160.928 136.309 160.928 134.176C160.928 131.957 160.117 130.293 158.496 129.184C156.96 128.075 154.485 127.52 151.072 127.52H136.992V174.88Z" fill="black"/>
</svg>
